Coordinates
version=1
nRows=14
nColumns=36
inDegrees=yes

Units are S.I. units (second, meters, Newtons, ...)
If the header above contains a line with 'inDegrees', this indicates whether rotational values are in degrees (yes) or radians (no).

endheader
time	pelvis_tilt	pelvis_list	pelvis_rotation	pelvis_tx	pelvis_ty	pelvis_tz	hip_flexion_r	hip_adduction_r	hip_rotation_r	knee_angle_r	knee_angle_r_beta	ankle_angle_r	subtalar_angle_r	mtp_angle_r	hip_flexion_l	hip_adduction_l	hip_rotation_l	knee_angle_l	knee_angle_l_beta	ankle_angle_l	subtalar_angle_l	mtp_angle_l	lumbar_extension	lumbar_bending	lumbar_rotation	arm_flex_r	arm_add_r	arm_rot_r	elbow_flex_r	pro_sup_r	arm_flex_l	arm_add_l	arm_rot_l	elbow_flex_l	pro_sup_l
      1.51666670	     -8.13599923	      1.10290497	     -3.70605522	     -2.13623193	      1.03675011	     -0.22643288	      8.38528148	      1.86200473	      4.33435138	      5.25408641	      0.09170111	     11.85312496	      0.14493151	     -7.49999987	      6.21530811	      0.68322243	     -2.84810227	      1.14696832	      0.02001837	     11.46249665	      4.32612620	     -7.49999987	      9.08474945	      0.00434138	      1.26754652	     -2.30301930	     -8.00203095	     23.67021059	     13.25936182	     61.28918141	     -7.37047913	     -6.51696379	      9.71690392	     16.73080822	     60.24938492
      1.53333330	     -8.11681785	      1.09635722	     -3.72644298	     -2.13682587	      1.03638647	     -0.22672112	      8.39897766	      1.86920224	      4.34187620	      5.30987962	      0.09267488	     11.77768431	      0.11083380	     -7.49999987	      6.21529644	      0.67677829	     -2.96774237	      1.19326257	      0.02082636	     11.44904655	      4.35316718	     -7.49999987	      9.03222058	      0.04230615	      1.28032679	     -2.34529115	     -8.01577032	     23.46086756	     13.32651434	     61.43323933	     -7.40404872	     -6.49127701	      9.76070632	     16.81161516	     60.14598460
      1.55000000	     -8.01341621	      1.10022043	     -3.73907399	     -2.13695942	      1.03654949	     -0.22703397	      8.35141157	      1.84518448	      4.16280969	      5.44269567	      0.09499296	     11.93230985	      0.45131234	     -7.49999987	      6.11974144	      0.68536621	     -3.04140551	      1.23360254	      0.02153043	     11.39378899	      4.33256678	     -7.49999987	      8.89164764	      0.03854014	      1.30321877	     -2.39487702	     -8.00820936	     23.17678889	     13.41894027	     61.07711073	     -7.43478059	     -6.45505736	      9.30457159	     16.92266800	     59.90039610
      1.56666670	     -7.94607142	      1.09395102	     -3.71802865	     -2.13607934	      1.03724638	     -0.22731726	      8.31899836	      1.83592010	      4.11288595	      5.53295476	      0.09656828	     11.91642905	      0.42185053	     -7.49999987	      6.06301891	      0.69434697	     -2.99117569	      1.27247495	      0.02220888	     11.24608444	      4.08062253	     -7.49999987	      8.80539743	      0.06583783	      1.25271921	     -2.41130816	     -8.02590226	     23.13555903	     13.44698721	     60.98216029	     -7.46999627	     -6.43081705	      9.19164512	     16.97679141	     59.84111300
      1.58333330	     -7.98213682	      1.09499601	     -3.67370381	     -2.13440256	      1.03816422	     -0.22732877	      8.38391915	      1.83136205	      4.22130840	      5.58998676	      0.09756367	     11.74178872	      0.13284621	     -7.49999987	      6.12839131	      0.69596799	     -2.98578562	      1.32372111	      0.02310329	     11.19320702	      4.05496554	     -7.49999987	      8.88460034	      0.08132051	      1.19866225	     -2.42754482	     -8.01917960	     23.25287831	     13.30973391	     61.25969988	     -7.44666568	     -6.43382902	      9.56578739	     16.80282941	     59.95379028
      1.60000000	     -7.87492734	      1.10130349	     -3.73776721	     -2.13286537	      1.03921962	     -0.22698275	      8.30602791	      1.81639278	      4.16360553	      5.66576638	      0.09888628	     11.83591222	      0.37687048	     -7.49999987	      6.02114592	      0.69946646	     -3.39084988	      1.34660802	      0.02350274	     11.28023961	      4.47671145	     -7.49999987	      8.74317524	      0.07743863	      1.38920616	     -2.52609129	     -8.03177428	     23.16475937	     13.37940290	     61.08841729	     -7.41614239	     -6.39920532	      9.27788907	     16.92053349	     59.79389501
      1.61666670	     -7.81745241	      1.08328509	     -3.62236520	     -2.13249056	      1.03928683	     -0.22686196	      8.22684493	      1.81268377	      4.04739790	      5.64219107	      0.09847481	     11.78788182	      0.36034700	     -7.49999987	      5.96227115	      0.71181284	     -2.98427191	      1.30815974	      0.02283169	     11.10369211	      4.00074825	     -7.49999987	      8.66736913	      0.08287747	      1.30443805	     -2.54582850	     -8.02842808	     23.11242132	     13.40486707	     61.01580801	     -7.38985754	     -6.38748373	      9.21233563	     16.90203952	     59.74596927
      1.63333330	     -7.86089722	      1.07546559	     -3.58924852	     -2.13304546	      1.03818576	     -0.22677792	      8.27664802	      1.82646288	      4.09707960	      5.64481980	      0.09852069	     11.69785267	      0.20289679	     -7.49999987	      6.02278855	      0.70828721	     -3.01872093	      1.30087746	      0.02270459	     11.13918687	      4.08523861	     -7.49999987	      8.77290944	      0.08750274	      1.34961298	     -2.57725707	     -7.97538085	     23.09711446	     13.22295950	     61.10567050	     -7.30592709	     -6.38001682	      9.36697778	     16.76866068	     59.83063243
      1.65000000	     -7.89148547	      1.06381661	     -3.48442439	     -2.13374803	      1.03781823	     -0.22684868	      8.31942789	      1.82620580	      3.93216128	      5.66779286	      0.09892165	     11.73159576	      0.29597305	     -7.49999987	      6.07335101	      0.71432194	     -2.83018163	      1.28351086	      0.02240149	     11.13811958	      3.97418433	     -7.49999987	      8.82806135	      0.06125358	      1.24117340	     -2.56984172	     -7.92783432	     23.08960019	     13.13758577	     61.39674346	     -7.20338138	     -6.41081842	      9.68399944	     16.56636087	     59.90746954
      1.66666670	     -7.87845231	      1.06058367	     -3.46537598	     -2.13427010	      1.03761115	     -0.22689236	      8.31731443	      1.83096502	      3.92435720	      5.69034711	      0.09931529	     11.72645678	      0.22436600	     -7.49999987	      6.07317888	      0.71770480	     -2.90961719	      1.27648923	      0.02227894	     11.22543508	      4.14340775	     -7.49999987	      8.84190684	      0.05994693	      1.30507840	     -2.60436787	     -7.93640616	     22.96701005	     13.14674317	     61.55545140	     -7.15570572	     -6.41979573	      9.77975147	     16.51865764	     59.87391843
      1.68333330	     -7.86567893	      1.04757629	     -3.44256270	     -2.13458690	      1.03687364	     -0.22702755	      8.32914080	      1.84660810	      4.01469358	      5.74109552	      0.10020102	     11.66875269	      0.01686565	     -7.49999987	      6.07335298	      0.71162574	     -2.92018026	      1.27505076	      0.02225383	     11.22340788	      4.13753179	     -7.49999987	      8.84526615	      0.05659887	      1.36607298	     -2.60863438	     -7.91174814	     22.88363810	     13.07777662	     61.73898232	     -7.10346148	     -6.43392142	      9.89633604	     16.51119117	     59.87267151
      1.70000000	     -7.77538661	      1.02963634	     -3.43968399	     -2.13424577	      1.03653586	     -0.22713286	      8.28455046	      1.85563752	      3.91084883	      5.85896683	      0.10225826	     11.78566947	      0.19695405	     -7.49999987	      5.99385350	      0.70006395	     -3.05385382	      1.29412781	      0.02258679	     11.20990169	      4.22951828	     -7.49999987	      8.72304495	      0.06711976	      1.42518674	     -2.64205091	     -7.92451330	     22.73789182	     13.16354837	     61.52681237	     -7.04719214	     -6.40984869	      9.57143923	     16.56947390	     59.75031117
      1.71666670	     -7.73531692	      1.00041280	     -3.36219651	     -2.13286293	      1.03685352	     -0.22711600	      8.28903311	      1.85728582	      3.72154645	      5.99504235	      0.10463323	     11.86929216	      0.37735722	     -7.49999987	      5.96800131	      0.68126304	     -3.09667960	      1.33025064	      0.02321725	     11.16950281	      4.28612499	     -7.49999987	      8.69831056	      0.09101557	      1.31187795	     -2.62462660	     -7.90705215	     22.65900404	     13.09530562	     61.25543864	     -7.01265926	     -6.36106890	      9.34408931	     16.45955251	     59.70369223
      1.73333330	     -7.77524309	      0.97613201	     -3.30205842	     -2.13122148	      1.03830285	     -0.22691366	      8.31605899	      1.88218078	      3.82097169	      6.00675894	      0.10483772	     11.70858781	      0.01564404	     -7.49999987	      6.00396808	      0.65375412	     -2.93340367	      1.35657490	      0.02367670	     10.93772484	      3.92944308	     -7.49999987	      8.79201645	      0.10479369	      1.25539512	     -2.62566127	     -7.89655952	     22.82155424	     12.92819428	     61.80312976	     -6.96527826	     -6.45276619	     10.09483001	     16.29775683	     60.12816607
